<svg width="100.000000" height="100.000000" viewBox="0 0 100 100" fill="none" xmlns="http://www.w3.org/2000/svg" xmlns:xlink="http://www.w3.org/1999/xlink">
	<desc>
			Created with Pixso.
	</desc>
	<defs>
		<clipPath id="clip89_35">
			<rect id="crashvibe-light" width="100.000000" height="100.000000" fill="white" fill-opacity="0"/>
		</clipPath>
	</defs>
	<rect id="crashvibe-light" width="100.000000" height="100.000000" fill="#FFFFFF" fill-opacity="1.000000"/>
	<g clip-path="url(#clip89_35)">
		<path id="Vector" d="M28.94 49.16L27.12 57.38C26.68 59.38 26.59 61.44 26.77 63.48L21.62 68.62C20.66 69.58 19.24 68.55 19.49 67.07L21.74 53.47C21.9 52.54 21.35 51.64 20.57 51.55L9.19 50.22C7.95 50.07 7.55 48.12 8.59 47.28L18.11 39.6C18.76 39.08 18.9 37.98 18.4 37.24L11.13 26.53C10.34 25.37 11.2 23.64 12.42 23.94L23.63 26.68C24.39 26.86 25.13 26.2 25.21 25.26L26.31 11.45C26.43 9.94 28.04 9.46 28.73 10.71L35.06 22.27C35.49 23.06 36.4 23.22 37 22.62L45.83 13.8C46.79 12.84 48.21 13.88 47.97 15.36L46.31 25.32C45.91 25.86 45.52 26.4 45.15 26.98L40.46 34.61L38.89 37.15C34.1 38.7 30.24 43.27 28.94 49.16Z" fill="#212121" fill-opacity="1.000000" fill-rule="nonzero"/>
		<path id="Vector" d="M62 30C45.42 30 32 43.42 32 60C32 76.57 45.42 90 62 90C78.57 90 92 76.57 92 60C92 43.42 78.57 30 62 30ZM48.45 58.06C48.45 56.93 48.94 55.94 49.72 55.23L45.97 54.1C44.94 53.8 44.36 52.71 44.67 51.7C44.97 50.67 46.05 50.1 47.08 50.4L56.76 53.31C57.79 53.61 58.37 54.7 58.05 55.71C57.8 56.55 57.04 57.09 56.2 57.09C56.14 57.09 56.07 57.07 56 57.07C56.08 57.39 56.2 57.71 56.2 58.06C56.2 60.2 54.47 61.93 52.33 61.93C50.19 61.93 48.45 60.2 48.45 58.06ZM68.77 76.71C65.41 72.67 58.58 72.67 55.21 76.71C53.58 78.68 50.59 76.2 52.23 74.23C54.65 71.33 58.21 69.66 61.98 69.66C65.76 69.66 69.31 71.33 71.73 74.23C73.4 76.23 70.39 78.66 68.77 76.71ZM78.04 54.1L74.29 55.23C75.05 55.93 75.56 56.93 75.56 58.06C75.56 60.2 73.83 61.93 71.68 61.93C69.54 61.93 67.81 60.2 67.81 58.06C67.81 57.71 67.92 57.38 68.02 57.07C67.95 57.08 67.89 57.09 67.81 57.09C66.98 57.09 66.22 56.55 65.96 55.71C65.66 54.68 66.24 53.61 67.26 53.31L76.93 50.4C77.95 50.1 79.04 50.68 79.34 51.7C79.64 52.73 79.06 53.8 78.04 54.1Z" fill="#212121" fill-opacity="1.000000" fill-rule="nonzero"/>
	</g>
</svg>
