<svg xmlns="http://www.w3.org/2000/svg" xmlns:xlink="http://www.w3.org/1999/xlink" width="128" height="128" fill="none" viewBox="0 0 128 128"><defs><clipPath id="clip2_31"><rect id="图标/Logo/夜间/128x128" width="128" height="128" fill="#fff" fill-opacity="0"/></clipPath></defs><rect id="图标/Logo/夜间/128x128" width="128" height="128" fill="#000" fill-opacity="0"/><g clip-path="url(#clip2_31)"><path id="合并" fill="#FFF" fill-opacity="1" fill-rule="evenodd" d="M38.935 62.508L36.7683 72.2693C36.2445 74.6443 36.1373 77.0905 36.3516 79.513L30.2207 85.6168C29.0778 86.7568 27.3873 85.5337 27.685 83.7761L30.3635 67.6262C30.554 66.5218 29.8992 65.453 28.9707 65.3461L15.423 63.7668C13.9469 63.5886 13.4707 61.273 14.7088 60.2755L26.0421 51.1555C26.8159 50.538 26.9826 49.2318 26.3873 48.353L17.7326 35.6349C16.7921 34.2574 17.8159 32.203 19.2683 32.5593L32.6135 35.813C33.5183 36.0268 34.3992 35.243 34.4945 34.1268L35.804 17.7274C35.9469 15.9343 37.8635 15.3643 38.685 16.8486L46.2207 30.5761C46.7326 31.5143 47.8159 31.7043 48.5302 30.9918L59.0421 20.518C60.185 19.378 61.8754 20.613 61.5897 22.3705L59.6135 34.198C59.1373 34.8393 58.6731 35.4805 58.2326 36.1693L52.6492 45.2299L50.7802 48.2462C45.0778 50.0868 40.4826 55.5136 38.935 62.508ZM42.5778 75.3805C42.5778 55.6918 58.554 39.7555 78.2921 39.7555C98.0183 39.7555 114.006 55.6918 114.006 75.3805C114.006 95.0574 98.0183 111.006 78.2921 111.006C58.554 111.006 42.5778 95.0574 42.5778 75.3805ZM63.6731 69.7161C62.7445 70.5593 62.1612 71.7349 62.1612 73.0768C62.1612 75.618 64.2326 77.6724 66.7802 77.6724C69.3278 77.6724 71.3874 75.618 71.3874 73.0768C71.3874 72.6611 71.2445 72.2811 71.1493 71.9012C71.2326 71.9012 71.3159 71.9249 71.3874 71.9249C72.3874 71.9249 73.2921 71.2836 73.5897 70.2861C73.9707 69.0868 73.2802 67.7924 72.054 67.4361L60.5302 63.9805C59.304 63.6243 58.0183 64.3011 57.6612 65.5243C57.2921 66.7236 57.9826 68.018 59.2088 68.3743L63.6731 69.7161ZM92.9231 69.7161L97.3874 68.3743C98.6016 68.018 99.2921 66.7474 98.935 65.5243C98.5778 64.313 97.2802 63.6243 96.0659 63.9805L84.554 67.4361C83.3397 67.7924 82.6493 69.063 83.0064 70.2861C83.3159 71.2836 84.2207 71.9249 85.2088 71.9249C85.304 71.9249 85.3754 71.913 85.4588 71.9012C85.3397 72.2693 85.2088 72.6611 85.2088 73.0768C85.2088 75.618 87.2683 77.6724 89.8159 77.6724C92.3755 77.6724 94.435 75.618 94.435 73.0768C94.435 71.7349 93.8278 70.5474 92.9231 69.7161ZM70.2088 95.2236C74.2207 90.4261 82.3516 90.4261 86.3516 95.2236C88.2802 97.5393 91.8635 94.6537 89.8755 92.2787C86.9945 88.8349 82.7683 86.8518 78.2683 86.8518C73.7802 86.8518 69.5421 88.8349 66.6612 92.2787C64.7088 94.618 68.2683 97.563 70.2088 95.2236Z" clip-rule="evenodd"/></g></svg>